# xmcd
#
# Track frame offsets:
#	183
#	15340
#	30513
#	44235
#	58948
#	74245
#	89170
#	102950
#	117058
#	127035
#
# Disc length: 1941 seconds
#
# Revision: 1
# Processed by: cddbd v1.5.1PL0 Copyright (c) Steve Scherf et al.
# Submitted via: audiograbber 1.83.01
#
DISCID=9407930a
DTITLE=Bourbon Gauthier - J'ai rien pour me plaindre
DYEAR=1992
DGENRE=Country
TTITLE0=Cripine - Bourbon Gauthier
TTITLE1=J'ai dit oui - Bourbon Gauthier
TTITLE2=Rien dans l'nez - Bourbon Gauthier
TTITLE3=Le début de ma fin - Bourbon Gauthier
TTITLE4=Trente sous - Bourbon Gauthier
TTITLE5=J'ai rien pour me plaindre - Bourbon Gauthier
TTITLE6=On n'a jamais osé lui demander - Bourbon Gauthier
TTITLE7=Moment fébrile - Bourbon Gauthier
TTITLE8=Le cowboy qui aime la musique africaine - Bourbon Gauthier
TTITLE9=Le temps qui comptait - Bourbon Gauthier
EXTD=
EXTT0=
EXTT1=
EXTT2=
EXTT3=
EXTT4=
EXTT5=
EXTT6=
EXTT7=
EXTT8=
EXTT9=
PLAYORDER=
